<?xml version="1.0" encoding="UTF-8"?>
<svg xmlns="http://www.w3.org/2000/svg" id="Layer_1" data-name="Layer 1" viewBox="0 0 512 512" width="512" height="512"><path d="M430.969,160.905a44.15,44.15,0,0,0-34.147-19.622l-4.8-31.129A6.061,6.061,0,0,0,386.1,105H361.212a5.974,5.974,0,0,0-5.93,5.054L350.5,141H342V129.455A33.4,33.4,0,0,0,308.531,96H44.636A33.54,33.54,0,0,0,11,129.455v225.02c0,3.314,2.674,5.525,5.987,5.525H51.441c-.062,1.053-.1,2.111-.1,3.18a53.073,53.073,0,0,0,106.145,0c0-1.069-.041-2.127-.1-3.18H354.647c-.063,1.053-.1,2.111-.1,3.18a53.073,53.073,0,0,0,106.145,0c0-1.069-.042-2.127-.1-3.18h34.429c3.313,0,5.987-2.211,5.987-5.525V276.089a43.355,43.355,0,0,0-7.688-24.71ZM366.356,117h14.6l3.716,24H362.641ZM343,153h51.118A32.286,32.286,0,0,1,421,167.492c.019.028.038-.011.058.017L449.013,208H364.441A21.255,21.255,0,0,1,343,186.671ZM104.409,404.109a40.93,40.93,0,1,1,41.073-40.929A41.047,41.047,0,0,1,104.409,404.109ZM213,348H155.247a53.106,53.106,0,0,0-101.675,0H23V302H213Zm0-58H23V256H213Zm86,58H225V187.078A5.211,5.211,0,0,1,230.2,182h63.59A5.229,5.229,0,0,1,299,187.078Zm108.615,56.109a40.93,40.93,0,1,1,41.073-40.929A41.047,41.047,0,0,1,407.615,404.109ZM489,348H458.453a53.106,53.106,0,0,0-101.675,0H311V187.078A17.241,17.241,0,0,0,293.785,170H230.2A17.224,17.224,0,0,0,213,187.078V244H23V129.455A21.527,21.527,0,0,1,44.636,108h263.9A21.385,21.385,0,0,1,330,129.455l1,57.216A33.268,33.268,0,0,0,364.441,220h92.841l26.156,38.016A32.972,32.972,0,0,1,488.856,273H465.51C456.1,273,448,280.748,448,290.136v20.52A17.728,17.728,0,0,0,465.51,328H489Zm0-32H465.51a5.733,5.733,0,0,1-5.51-5.344V306h29Zm0-22H460v-3.864c0-2.771,2.721-5.136,5.51-5.136H489Z"/><path d="M74.35,148h89.664a6,6,0,0,0,0-12H74.35a6,6,0,0,0,0,12Z"/><path d="M48.5,148h5.357a6,6,0,1,0,0-12H48.5a6,6,0,0,0,0,12Z"/><path d="M173.978,170H103a6,6,0,0,0,0,12h70.978A5.061,5.061,0,0,1,179,187.078v24.065A4.875,4.875,0,0,1,173.978,216H55.092A4.936,4.936,0,0,1,50,211.143V187.078A5.121,5.121,0,0,1,55.092,182H63a6,6,0,0,0,0-12H55.092A17.135,17.135,0,0,0,38,187.078v24.065A16.947,16.947,0,0,0,55.092,228H173.978A16.887,16.887,0,0,0,191,211.143V187.078A17.075,17.075,0,0,0,173.978,170Z"/><path d="M104.409,338.8a24.379,24.379,0,1,0,24.436,24.379A24.434,24.434,0,0,0,104.409,338.8Zm0,36.758a12.379,12.379,0,1,1,12.436-12.379A12.421,12.421,0,0,1,104.409,375.559Z"/><path d="M407.615,338.8a24.379,24.379,0,1,0,24.436,24.379A24.434,24.434,0,0,0,407.615,338.8Zm0,36.758a12.379,12.379,0,1,1,12.436-12.379A12.421,12.421,0,0,1,407.615,375.559Z"/></svg>
