<svg id="Capa_1" enable-background="new 0 0 512 512" viewBox="0 0 512 512" xmlns="http://www.w3.org/2000/svg"><g><path d="m338.5 0c-60.044 0-111.53 37.33-132.477 90h-122.523c-28.949 0-52.5 23.552-52.5 52.5v121c0 4.143 3.358 7.5 7.5 7.5s7.5-3.357 7.5-7.5v-121c0-18.11 12.904-33.261 30-36.745v301.79c-11.676 1.678-22.117 7.218-30 15.271v-129.316c0-4.143-3.358-7.5-7.5-7.5s-7.5 3.357-7.5 7.5v166c0 28.948 23.551 52.5 52.5 52.5h255c4.142 0 7.5-3.357 7.5-7.5v-30c0-1.989-.79-3.896-2.197-5.304-2.59-2.59-4.016-6.033-4.016-9.696s1.426-7.106 4.016-9.696c1.407-1.407 2.197-3.314 2.197-5.304v-159.698c29.889-1.523 57.91-12.148 81.444-30.974 3.234-2.587 3.759-7.307 1.172-10.541-2.588-3.236-7.308-3.76-10.542-1.172-22.805 18.242-50.321 27.885-79.574 27.885-19.459 0-38.138-4.271-55.518-12.691-2.371-1.149-5.169-.97-7.374.471-12.231 7.994-26.436 12.22-41.079 12.22-3.737 0-7.435-.271-11.081-.809 10.407-7.163 19.334-16.502 25.972-27.328 1.812-2.956 1.362-6.77-1.09-9.223-24.073-24.079-37.33-56.092-37.33-90.14 0-70.304 57.196-127.5 127.5-127.5s127.5 57.196 127.5 127.5c0 29.253-9.642 56.769-27.885 79.574-2.587 3.234-2.062 7.954 1.172 10.541 3.234 2.589 7.954 2.062 10.542-1.172 20.392-25.492 31.171-56.249 31.171-88.943 0-78.575-63.925-142.5-142.5-142.5zm-7.5 437h-247.5c-12.407 0-22.5 10.094-22.5 22.5s10.093 22.5 22.5 22.5h247.5v15h-247.5c-20.678 0-37.5-16.822-37.5-37.5s16.822-37.5 37.5-37.5h247.5zm-5.217 30h-212.283c-4.136 0-7.5-3.364-7.5-7.5s3.364-7.5 7.5-7.5h212.283c-.65 2.417-.996 4.931-.996 7.5s.346 5.083.996 7.5zm-233.493 0h-8.79c-4.136 0-7.5-3.364-7.5-7.5s3.364-7.5 7.5-7.5h8.79c-.833 2.347-1.29 4.871-1.29 7.5s.458 5.153 1.29 7.5zm141.161-228.211c-8.279 11.43-19.736 20.463-32.765 25.737-2.832 1.146-4.686 3.896-4.686 6.952 0 3.055 1.853 5.805 4.685 6.952 10.767 4.359 22.153 6.569 33.844 6.569 16.148 0 31.854-4.285 45.687-12.431 16.089 7.232 33.124 11.335 50.784 12.239v122.193h-240v-302h110.017c-3.264 11.954-5.017 24.525-5.017 37.5 0 35.989 13.254 69.945 37.451 96.289z"/><path d="m316 142.5c0 12.406 10.093 22.5 22.5 22.5s22.5-10.094 22.5-22.5-10.093-22.5-22.5-22.5-22.5 10.094-22.5 22.5zm30 0c0 4.136-3.364 7.5-7.5 7.5s-7.5-3.364-7.5-7.5 3.364-7.5 7.5-7.5 7.5 3.364 7.5 7.5z"/><path d="m256 142.5c0 12.406 10.093 22.5 22.5 22.5s22.5-10.094 22.5-22.5-10.093-22.5-22.5-22.5-22.5 10.094-22.5 22.5zm30 0c0 4.136-3.364 7.5-7.5 7.5s-7.5-3.364-7.5-7.5 3.364-7.5 7.5-7.5 7.5 3.364 7.5 7.5z"/><path d="m376 142.5c0 12.406 10.093 22.5 22.5 22.5s22.5-10.094 22.5-22.5-10.093-22.5-22.5-22.5-22.5 10.094-22.5 22.5zm30 0c0 4.136-3.364 7.5-7.5 7.5s-7.5-3.364-7.5-7.5 3.364-7.5 7.5-7.5 7.5 3.364 7.5 7.5z"/></g><g/><g/><g/><g/><g/><g/><g/><g/><g/><g/><g/><g/><g/><g/><g/></svg>