<svg id="Capa_1" enable-background="new 0 0 512 512" viewBox="0 0 512 512" xmlns="http://www.w3.org/2000/svg"><g><path d="m458.5 0h-405c-20.678 0-37.5 16.822-37.5 37.5v203.5c0 4.143 3.357 7.5 7.5 7.5s7.5-3.357 7.5-7.5v-203.5c0-12.406 10.094-22.5 22.5-22.5h255c12.406 0 22.5 10.094 22.5 22.5v437c0 12.406-10.094 22.5-22.5 22.5h-255c-12.406 0-22.5-10.094-22.5-22.5v-203.5c0-4.143-3.357-7.5-7.5-7.5s-7.5 3.357-7.5 7.5v203.5c0 20.678 16.822 37.5 37.5 37.5h405c20.678 0 37.5-16.822 37.5-37.5v-437c0-20.678-16.822-37.5-37.5-37.5zm-120.021 497c3.283-4.363 5.637-9.461 6.766-15h53.255c4.143 0 7.5-3.357 7.5-7.5v-437c0-4.143-3.357-7.5-7.5-7.5h-53.255c-1.129-5.539-3.483-10.637-6.766-15h60.021c12.406 0 22.5 10.094 22.5 22.5v437c0 12.406-10.094 22.5-22.5 22.5zm7.521-452h45v422h-45zm135 429.5c0 12.406-10.094 22.5-22.5 22.5 4.699-6.272 7.5-14.064 7.5-22.5v-203.5c0-4.143-3.357-7.5-7.5-7.5s-7.5 3.357-7.5 7.5v203.5c0 12.406-10.094 22.5-22.5 22.5 4.699-6.272 7.5-14.064 7.5-22.5v-437c0-8.436-2.801-16.228-7.521-22.5 12.427 0 22.521 10.094 22.521 22.5v203.5c0 4.143 3.357 7.5 7.5 7.5s7.5-3.357 7.5-7.5v-203.5c0-8.436-2.801-16.228-7.521-22.5 12.427 0 22.521 10.094 22.521 22.5z"/><path d="m136.327 123.725c10.005 8.582 18.573 18.611 25.468 29.809 4.132 6.71 11.312 10.717 19.205 10.717s15.073-4.007 19.205-10.717c6.896-11.199 15.464-21.228 25.468-29.809 4.974-4.266 7.827-10.453 7.827-16.975s-2.854-12.709-7.827-16.975c-10.004-8.581-18.572-18.609-25.468-29.809-4.132-6.709-11.311-10.716-19.205-10.716s-15.073 4.007-19.205 10.717c-6.895 11.197-15.463 21.227-25.468 29.809-4.974 4.266-7.827 10.453-7.827 16.975s2.854 12.708 7.827 16.974zm9.766-22.565c11.185-9.594 20.766-20.808 28.476-33.328 1.99-3.232 5.161-3.582 6.432-3.582s4.441.35 6.432 3.582c7.711 12.522 17.292 23.736 28.476 33.328 1.672 1.435 2.593 3.419 2.593 5.59s-.921 4.155-2.593 5.59c-11.184 9.592-20.765 20.806-28.476 33.328-1.99 3.232-5.161 3.582-6.432 3.582s-4.441-.35-6.432-3.582c-7.71-12.521-17.291-23.734-28.476-33.328-1.672-1.435-2.593-3.419-2.593-5.59s.921-4.155 2.593-5.59z"/><path d="m136.327 272.975c10.005 8.582 18.573 18.611 25.468 29.809 4.132 6.71 11.312 10.717 19.205 10.717s15.073-4.007 19.205-10.717c6.896-11.199 15.464-21.228 25.468-29.809 4.974-4.266 7.827-10.453 7.827-16.975s-2.854-12.709-7.827-16.975c-10.004-8.581-18.572-18.609-25.468-29.809-4.132-6.71-11.312-10.717-19.205-10.717s-15.073 4.007-19.205 10.717c-6.895 11.197-15.463 21.227-25.468 29.809-4.974 4.266-7.827 10.453-7.827 16.975s2.854 12.709 7.827 16.975zm9.766-22.565c11.185-9.594 20.766-20.808 28.476-33.328 1.99-3.232 5.161-3.582 6.432-3.582s4.441.35 6.432 3.582c7.711 12.522 17.292 23.736 28.476 33.328 1.672 1.435 2.593 3.419 2.593 5.59s-.921 4.155-2.593 5.59c-11.184 9.592-20.765 20.806-28.476 33.328-1.99 3.232-5.161 3.582-6.432 3.582s-4.441-.35-6.432-3.582c-7.71-12.521-17.291-23.734-28.476-33.328-1.672-1.435-2.593-3.419-2.593-5.59s.921-4.155 2.593-5.59z"/><path d="m136.327 422.225c10.005 8.582 18.573 18.611 25.468 29.809 4.132 6.71 11.312 10.717 19.205 10.717s15.073-4.007 19.205-10.717c6.896-11.199 15.464-21.228 25.468-29.809 4.974-4.266 7.827-10.453 7.827-16.975s-2.854-12.709-7.827-16.975c-10.004-8.581-18.572-18.609-25.468-29.809-4.132-6.71-11.312-10.717-19.205-10.717s-15.073 4.007-19.205 10.717c-6.895 11.197-15.463 21.227-25.468 29.809-4.974 4.266-7.827 10.453-7.827 16.975s2.854 12.709 7.827 16.975zm9.766-22.565c11.185-9.594 20.766-20.808 28.476-33.328 1.99-3.232 5.161-3.582 6.432-3.582s4.441.35 6.432 3.582c7.711 12.522 17.292 23.736 28.476 33.328 1.672 1.435 2.593 3.419 2.593 5.59s-.921 4.155-2.593 5.59c-11.184 9.592-20.765 20.806-28.476 33.328-1.99 3.232-5.161 3.582-6.432 3.582s-4.441-.35-6.432-3.582c-7.71-12.521-17.291-23.734-28.476-33.328-1.672-1.435-2.593-3.419-2.593-5.59s.921-4.155 2.593-5.59z"/></g><g/><g/><g/><g/><g/><g/><g/><g/><g/><g/><g/><g/><g/><g/><g/></svg>