<?xml version="1.0"?>
<svg xmlns="http://www.w3.org/2000/svg" id="Layer_1" data-name="Layer 1" viewBox="0 0 512 512" width="512" height="512"><title>hospital</title><path d="M216,150h22v21a11.013,11.013,0,0,0,11,11h17a11.013,11.013,0,0,0,11-11V150h20a11.013,11.013,0,0,0,11-11V123a11.013,11.013,0,0,0-11-11H277V92a11.013,11.013,0,0,0-11-11H249a11.013,11.013,0,0,0-11,11v20H216a11.013,11.013,0,0,0-11,11v16A11.013,11.013,0,0,0,216,150Zm3-24h22a11.013,11.013,0,0,0,11-11V95h11v20a11.013,11.013,0,0,0,11,11h20v10H274a11.013,11.013,0,0,0-11,11v21H252V147a11.013,11.013,0,0,0-11-11H219Z"/><path d="M483,175H394V69h19a9.01,9.01,0,0,0,9-9V28a9.01,9.01,0,0,0-9-9H99a9.01,9.01,0,0,0-9,9V60a9.01,9.01,0,0,0,9,9h19v55H29a9.01,9.01,0,0,0-9,9v33a9.01,9.01,0,0,0,9,9H45V486a7,7,0,0,0,7,7H460a7,7,0,0,0,7-7V226h16a9.01,9.01,0,0,0,9-9V184A9.01,9.01,0,0,0,483,175ZM104,33H408V55H104ZM34,138h84v23H34Zm25,37h59V479H59ZM132,69H380V479H301V366a11.013,11.013,0,0,0-11-11H223a11.013,11.013,0,0,0-11,11V479H132ZM287,479H226V369h61Zm166,0H394V226h59Zm25-267H394V189h84Z"/><path d="M182,203H161a11.013,11.013,0,0,0-11,11v25a11.013,11.013,0,0,0,11,11h21a11.013,11.013,0,0,0,11-11V214A11.013,11.013,0,0,0,182,203Zm-3,33H164V217h15Z"/><path d="M182,282H161a11.013,11.013,0,0,0-11,11v25a11.013,11.013,0,0,0,11,11h21a11.013,11.013,0,0,0,11-11V293A11.013,11.013,0,0,0,182,282Zm-3,33H164V296h15Z"/><path d="M266,203H245a11.013,11.013,0,0,0-11,11v25a11.013,11.013,0,0,0,11,11h21a11.013,11.013,0,0,0,11-11V214A11.013,11.013,0,0,0,266,203Zm-3,33H248V217h15Z"/><path d="M266,282H245a11.013,11.013,0,0,0-11,11v25a11.013,11.013,0,0,0,11,11h21a11.013,11.013,0,0,0,11-11V293A11.013,11.013,0,0,0,266,282Zm-3,33H248V296h15Z"/><path d="M330,250h21a11.013,11.013,0,0,0,11-11V214a11.013,11.013,0,0,0-11-11H330a11.013,11.013,0,0,0-11,11v25A11.013,11.013,0,0,0,330,250Zm3-33h15v19H333Z"/><path d="M330,329h21a11.013,11.013,0,0,0,11-11V293a11.013,11.013,0,0,0-11-11H330a11.013,11.013,0,0,0-11,11v25A11.013,11.013,0,0,0,330,329Zm3-33h15v19H333Z"/><path d="M411,297h21a11.013,11.013,0,0,0,11-11V261a11.013,11.013,0,0,0-11-11H411a11.013,11.013,0,0,0-11,11v25A11.013,11.013,0,0,0,411,297Zm3-33h15v19H414Z"/><path d="M99,250H78a11.013,11.013,0,0,0-11,11v25a11.013,11.013,0,0,0,11,11H99a11.013,11.013,0,0,0,11-11V261A11.013,11.013,0,0,0,99,250Zm-3,33H81V264H96Z"/></svg>
