<svg id="Capa_1" enable-background="new 0 0 512 512" height="300" viewBox="0 0 512 512" width="300" xmlns="http://www.w3.org/2000/svg" version="1.1" xmlns:xlink="http://www.w3.org/1999/xlink" xmlns:svgjs="http://svgjs.dev/svgjs"><g transform="matrix(1,0,0,1,0,0)"><g><path d="m512 256c0 99.28-56.52 185.36-139.14 227.82-35.03 18.01-214.9 9.67-233.72 0-82.62-42.46-139.14-128.54-139.14-227.82 0-141.38 114.62-256 256-256s256 114.62 256 256z" fill="#f5de58ff" data-original-color="#f5de58ff" stroke="none"/><g><path d="m372.86 483.82c-35.03 18.01-74.76 28.18-116.86 28.18s-81.83-10.17-116.86-28.18c5.23-59.94 55.55-106.96 116.86-106.96s111.63 47.02 116.86 106.96z" fill="#faf7f1ff" data-original-color="#faf7f1ff" stroke="none"/><path d="m286.32 380.82c-50.11 13.36-87.02 59.06-87.02 113.36v11.51c-21.17-4.78-41.34-12.2-60.16-21.87 5.23-59.94 55.55-106.96 116.86-106.96 10.49 0 20.65 1.38 30.32 3.96z" fill="#dddaecff" data-original-color="#dddaecff" stroke="none"/><path d="m296.158 381.16-40.152-40.152-59.967 59.967c-11.088 11.088-11.088 29.064 0 40.152 11.088 11.088 29.064 11.088 40.152 0z" fill="#ffffffff" data-original-color="#ffffffff" stroke="none"/><path d="m256.006 341.008-40.152 40.152 59.967 59.967c11.088 11.088 29.064 11.088 40.152 0 11.088-11.088 11.088-29.064 0-40.152z" fill="#ffffffff" data-original-color="#ffffffff" stroke="none"/><path d="m296.232 314.972v72.111c0 22.218-18.024 40.242-40.226 40.242-5.459 0-10.659-1.083-15.401-3.05-14.578-6.054-24.84-20.418-24.84-37.192v-72.111z" fill="#c18678ff" data-original-color="#c18678ff" stroke="none"/><path d="m360.719 291.824h-209.438c-33.42 0-60.513-27.093-60.513-60.513 0-20.899 16.942-37.841 37.841-37.841h254.782c20.899 0 37.841 16.942 37.841 37.841 0 33.42-27.093 60.513-60.513 60.513z" fill="#c18678ff" data-original-color="#c18678ff" stroke="none"/><path d="m151.281 271.423c-22.118 0-40.112-17.994-40.112-40.113 0-9.617 7.824-17.44 17.44-17.44h254.783c9.617 0 17.44 7.824 17.44 17.44 0 22.118-17.994 40.113-40.112 40.113z" fill="#b46e59ff" data-original-color="#b46e59ff" stroke="none"/><path d="m256 27.011c-64.796 0-117.324 122.063-117.324 186.859v45.665c0 64.796 52.528 117.324 117.324 117.324 64.796 0 117.324-52.528 117.324-117.324v-45.665c0-16.106-3.246-89.65-9.118-110.079-17.754-61.756-59.516-76.78-108.206-76.78z" fill="#c18678ff" data-original-color="#c18678ff" stroke="none"/><path d="m286.315 372.901c-9.67 2.581-19.829 3.958-30.315 3.958-64.803 0-117.324-52.521-117.324-117.324v-45.665c0-32.396 9.445-110.14 30.675-148.756s54.248-38.103 86.649-38.103c10.486 0 20.645 1.377 30.315 3.958-50.104 13.362-87.019 59.06-87.019 113.366v115.2c0 54.317 36.915 100.014 87.019 113.366z" fill="#b46e59ff" data-original-color="#b46e59ff" stroke="none"/><g><circle cx="206.011" cy="192.445" fill="#ffffffff" r="34.754" data-original-color="#ffffffff" stroke="none"/><path d="m214.734 226.092c-2.797.72-5.71 1.103-8.728 1.103-19.197 0-34.75-15.553-34.75-34.75s15.553-34.75 34.75-34.75c3.018 0 5.931.383 8.728 1.103-14.984 3.865-26.045 17.456-26.045 33.647s11.061 29.782 26.045 33.647z" fill="#dddaecff" data-original-color="#dddaecff" stroke="none"/><circle cx="305.989" cy="192.445" fill="#ffffffff" r="34.754" data-original-color="#ffffffff" stroke="none"/><path d="m314.713 226.092c-2.797.72-5.71 1.103-8.728 1.103-19.197 0-34.75-15.553-34.75-34.75s15.553-34.75 34.75-34.75c3.018 0 5.931.383 8.728 1.103-14.984 3.865-26.045 17.456-26.045 33.647s11.061 29.782 26.045 33.647z" fill="#dddaecff" data-original-color="#dddaecff" stroke="none"/></g><path d="m256 255.79c-6.717 0-12.162-5.445-12.162-12.162v-171.272h24.324v171.272c0 6.717-5.445 12.162-12.162 12.162z" fill="#b46e59ff" data-original-color="#b46e59ff" stroke="none"/><g fill="#544f57"><circle cx="206.011" cy="192.445" r="13.877" fill="#a093a7ff" data-original-color="#544f57ff" stroke="none"/><circle cx="305.989" cy="192.445" r="13.877" fill="#a093a7ff" data-original-color="#544f57ff" stroke="none"/></g><path d="m292.559 287.009c-20.159 20.158-52.959 20.158-73.117 0-4.484-4.484-4.484-11.755 0-16.238 4.484-4.484 11.754-4.484 16.238 0 11.205 11.205 29.436 11.204 40.64 0 4.484-4.484 11.754-4.484 16.238 0 4.485 4.484 4.484 11.754.001 16.238z" fill="#b46e59ff" data-original-color="#b46e59ff" stroke="none"/><path d="m240.603 361.538v62.732c-14.575-6.048-24.833-20.418-24.833-37.179v-44.84z" fill="#b46e59ff" data-original-color="#b46e59ff" stroke="none"/><path d="m373.32 215.37c-13.013-14.966-20.18-34.13-20.18-53.962v-33.751c0-17.735-17.213-30.373-34.134-25.061-41.018 12.876-84.997 12.876-126.016 0-16.921-5.312-34.134 7.326-34.134 25.061v33.751c0 19.832-7.167 38.997-20.18 53.962v-48.485-107.82c0-31.792 25.773-57.565 57.565-57.565h119.514c31.792 0 57.565 25.773 57.565 57.565z" fill="#e9dee9ff" data-original-color="#665e66ff" stroke="none"/><path d="m262.016 1.495c-31.8 0-57.57 25.77-57.57 57.57v46.77c-3.84-.97-7.66-2.05-11.46-3.24-2.66-.83-5.32-1.23-7.92-1.23-13.98 0-26.21 11.33-26.21 26.29v33.75c0 19.83-7.17 38.99-20.18 53.96v-156.3c0-31.8 25.77-57.57 57.57-57.57h65.77z" fill="#a093a7ff" data-original-color="#544f57ff" stroke="none"/></g></g></g></svg>