<svg id="Capa_1" enable-background="new 0 0 512 512" viewBox="0 0 512 512" xmlns="http://www.w3.org/2000/svg"><g><path d="m142.5 482c62.033 0 112.5-50.467 112.5-112.5s-50.467-112.5-112.5-112.5-112.5 50.467-112.5 112.5 50.467 112.5 112.5 112.5zm0-210c53.762 0 97.5 43.738 97.5 97.5s-43.738 97.5-97.5 97.5-97.5-43.738-97.5-97.5 43.738-97.5 97.5-97.5z"/><path d="m142.5 452c45.491 0 82.5-37.009 82.5-82.5s-37.009-82.5-82.5-82.5-82.5 37.009-82.5 82.5 37.009 82.5 82.5 82.5zm0-150c37.22 0 67.5 30.28 67.5 67.5s-30.28 67.5-67.5 67.5-67.5-30.28-67.5-67.5 30.28-67.5 67.5-67.5z"/><path d="m347 459.5c0 12.407 10.093 22.5 22.5 22.5s22.5-10.093 22.5-22.5-10.093-22.5-22.5-22.5-22.5 10.093-22.5 22.5zm30 0c0 4.136-3.364 7.5-7.5 7.5s-7.5-3.364-7.5-7.5 3.364-7.5 7.5-7.5 7.5 3.364 7.5 7.5z"/><path d="m142.5 392c12.407 0 22.5-10.093 22.5-22.5s-10.093-22.5-22.5-22.5-22.5 10.093-22.5 22.5 10.093 22.5 22.5 22.5zm0-30c4.136 0 7.5 3.364 7.5 7.5s-3.364 7.5-7.5 7.5-7.5-3.364-7.5-7.5 3.364-7.5 7.5-7.5z"/><path d="m504.5 377h-67.5v-52.5c0-20.678-16.822-37.5-37.5-37.5h-7.5v-82.5c0-34.922-26.658-63.733-60.693-67.157-3.351-17.265-18.577-30.343-36.807-30.343h-129.5v-39.5c0-37.22-30.28-67.5-67.5-67.5h-60c-12.407 0-22.5 10.093-22.5 22.5s10.093 22.5 22.5 22.5h60c12.407 0 22.5 10.093 22.5 22.5v62c0 4.142 3.358 7.5 7.5 7.5s7.5-3.358 7.5-7.5v-62c0-18.11-12.904-33.261-30-36.745v-15.21c25.407 3.651 45 25.554 45 51.956v159.697c-2.484-.129-4.984-.197-7.5-.197s-5.016.068-7.5.197v-67.698c0-4.142-3.358-7.5-7.5-7.5s-7.5 3.358-7.5 7.5v69.282c-67.921 10.821-120 69.798-120 140.718 0 32.694 10.779 63.451 31.171 88.944 2.588 3.235 7.308 3.759 10.542 1.172s3.759-7.307 1.172-10.542c-18.243-22.805-27.885-50.322-27.885-79.574 0-70.304 57.196-127.5 127.5-127.5s127.5 57.196 127.5 127.5-57.196 127.5-127.5 127.5c-29.252 0-56.769-9.642-79.574-27.885-3.236-2.587-7.955-2.062-10.542 1.172-2.587 3.235-2.062 7.955 1.172 10.542 25.493 20.392 56.25 31.171 88.944 31.171 70.92 0 129.897-52.079 140.718-120h63.782v20.076c-17.721 8.441-30 26.523-30 47.424 0 28.949 23.551 52.5 52.5 52.5s52.5-23.551 52.5-52.5c0-20.901-12.279-38.983-30-47.424v-110.076h7.5c12.407 0 22.5 10.093 22.5 22.5v90c0 4.142 3.358 7.5 7.5 7.5h75c4.142 0 7.5-3.358 7.5-7.5v-30c0-4.142-3.358-7.5-7.5-7.5zm-474.5-354.5c0-4.136 3.364-7.5 7.5-7.5h52.5v15h-52.5c-4.136 0-7.5-3.364-7.5-7.5zm346.456 174.5h-15.21c-3.484-17.096-18.635-30-36.745-30h-159.501v-15h159.5c26.402 0 48.304 19.593 51.956 45zm-30.746 0h-180.71v-15h159.5c9.778 0 18.114 6.271 21.21 15zm-51.21-75c9.778 0 18.114 6.271 21.21 15h-150.71v-15zm-129.5 106.782v-16.782h212v75h-118.372c-21.719-30.484-55.129-52.084-93.628-58.218zm119.803 148.218c.129-2.484.197-4.984.197-7.5 0-24.406-6.171-47.397-17.03-67.5h79.03v75zm122.197 82.5c0 20.678-16.822 37.5-37.5 37.5s-37.5-16.822-37.5-37.5 16.822-37.5 37.5-37.5 37.5 16.822 37.5 37.5zm-30-51.956c-2.451-.352-4.953-.544-7.5-.544s-5.049.192-7.5.544v-105.544h15zm120-.544h-60v-15h60z"/></g><g/><g/><g/><g/><g/><g/><g/><g/><g/><g/><g/><g/><g/><g/><g/></svg>