<svg id="Capa_1" enable-background="new 0 0 512 512" height="512" viewBox="0 0 512 512" width="512" xmlns="http://www.w3.org/2000/svg"><g><path d="m512 256c0 56.85-18.53 109.37-49.89 151.85-42.303 30.76-86.83 67.01-146.47 81.24-14.78 3.53-30.05 5.78-45.7 6.61-2.4.14-4.82.24-7.24.3-2.23.05-4.46.08-6.7.08-55.99 0-107.79-17.98-149.93-48.49-19.5-14.11-36.94-14.98-51.76-33.91-34.02-43.46-54.31-98.2-54.31-157.68 0-141.38 114.62-256 256-256s256 114.62 256 256z" fill="#dd636e"/><g><path d="m462.11 407.85c-45.38 61.5-117.63 101.96-199.41 104.07v-70.85c0-56.59 45.87-102.46 102.46-102.46 44.96 0 83.16 28.96 96.95 69.24z" fill="#9dc6fb"/><path d="m391.64 342.06c-43.76 11.68-76 51.59-76 99.01v63.94c-17.05 4.07-34.76 6.44-52.94 6.91v-70.85c0-56.59 45.87-102.46 102.46-102.46 9.16 0 18.03 1.21 26.48 3.45z" fill="#80b4fb"/><path d="m364.792 9.74c-74.931 0-135.674 60.743-135.674 135.674v182.773h271.348v-182.773c0-74.931-60.743-135.674-135.674-135.674z" fill="#faf7f1"/><path d="m404.354 15.6c-55.631 16.925-96.119 68.635-96.119 129.812v125.46l56.92 57.31h-136.035v-182.77c0-74.932 60.74-135.672 135.672-135.672 13.764 0 27.047 2.052 39.562 5.86z" fill="#dddaec"/><path d="m322.515 332.343c-8.377 0-16.093 5.108-18.838 13.022-.729 2.101-1.125 4.359-1.125 6.71 0 9.404 6.336 17.31 14.966 19.731-4.39 7.814-3.28 17.886 3.369 24.535 6.649 6.649 16.72 7.76 24.535 3.369 2.421 8.63 10.328 14.966 19.731 14.966 9.404 0 17.31-6.336 19.731-14.966 7.814 4.39 17.886 3.28 24.535-3.369 6.649-6.649 7.76-16.72 3.369-24.535 8.63-2.421 14.966-10.328 14.966-19.731 0-2.351-.396-4.608-1.125-6.71-2.745-7.914-10.462-13.022-18.838-13.022z" fill="#cbe2ff"/><path d="m400.291 284.563v62.977c0 19.403-15.741 35.144-35.131 35.144-4.767 0-9.309-.946-13.45-2.663-12.731-5.287-21.694-17.832-21.694-32.481v-62.977z" fill="#ffddce"/><path d="m456.61 264.347h-182.909c-29.187 0-52.848-23.661-52.848-52.848 0-18.252 14.796-33.048 33.048-33.048h222.509c18.252 0 33.048 14.796 33.048 33.048 0 29.187-23.661 52.848-52.848 52.848z" fill="#ffcbbe"/><path d="m273.701 246.53c-19.316 0-35.031-15.715-35.031-35.032 0-8.398 6.833-15.231 15.231-15.231h222.509c8.398 0 15.231 6.833 15.231 15.231 0 19.316-15.715 35.032-35.031 35.032z" fill="#eaac9d"/><path d="m467.62 160.78v75.37c0 28.29-11.47 53.91-30.01 72.45-18.55 18.54-44.16 30.01-72.45 30.01-56.59 0-102.47-45.87-102.47-102.46v-75.37c0-2.41.08-4.8.25-7.17 13.05 7.79 28.31 12.27 44.62 12.27.23 0 .44 0 .67-.01 36.81-.28 68.17-23.39 80.67-55.86 9.21 20.17 29.54 34.19 53.15 34.19 8.29 0 16.18-1.73 23.32-4.85 1.48 6.91 2.25 14.08 2.25 21.43z" fill="#ffddce"/><g fill="#ffcbbe"><path d="m455.085 197.333h-25.178v-12.177h25.178c3.362 0 6.088 2.726 6.088 6.088 0 3.363-2.726 6.089-6.088 6.089z"/><path d="m451.859 214.616h-40.904l15.726-12.177h25.178c3.362 0 6.088 2.726 6.088 6.088 0 3.363-2.726 6.089-6.088 6.089z"/><path d="m391.63 335.15c-8.44 2.26-17.32 3.46-26.47 3.46-56.6 0-102.47-45.87-102.47-102.46v-75.37c0-2.41.08-4.8.25-7.17 13.05 7.79 28.31 12.27 44.62 12.27.23 0 .44 0 .67-.01 2.49-.02 4.96-.14 7.4-.37v70.65c0 47.43 32.24 87.34 76 99z"/><path d="m375.78 132.93v98.06c0 5.87-4.76 10.62-10.62 10.62-5.87 0-10.63-4.75-10.63-10.62v-78.87c8.1-5.19 15.28-11.68 21.25-19.19z"/><path d="m351.708 317.679v62.336c-12.729-5.282-21.687-17.832-21.687-32.47v-29.867h21.687z"/></g><g><circle cx="479.725" cy="258.87" fill="#cbe2ff" r="9.148"/><path d="m483.939 267c-1.258.655-2.699 1.022-4.218 1.022-5.048 0-9.144-4.096-9.144-9.152 0-5.048 4.096-9.144 9.144-9.144 1.52 0 2.961.367 4.218 1.022-2.943 1.528-4.943 4.594-4.943 8.122 0 3.537 2 6.602 4.943 8.13z" fill="#9dc6fb"/><circle cx="250.585" cy="258.87" fill="#cbe2ff" r="9.148"/><path d="m254.799 267c-1.258.655-2.699 1.022-4.218 1.022-5.048 0-9.144-4.096-9.144-9.152 0-5.048 4.096-9.144 9.144-9.144 1.52 0 2.961.367 4.218 1.022-2.943 1.528-4.943 4.594-4.943 8.122 0 3.537 2 6.602 4.943 8.13z" fill="#9dc6fb"/></g><path d="m391.322 267.95c-14.428 14.428-37.905 14.428-52.333 0-3.21-3.21-3.209-8.413 0-11.622s8.413-3.21 11.622 0c8.02 8.02 21.069 8.019 29.088 0 3.209-3.209 8.413-3.21 11.622 0s3.21 8.413.001 11.622z" fill="#ffcbbe"/><g fill="#dddaec"><path d="m303.632 183.28c-13.305 0-24.129-10.824-24.129-24.129 0-2.96 2.399-5.359 5.359-5.359s5.359 2.399 5.359 5.359c0 7.395 6.016 13.411 13.411 13.411 2.959 0 5.359 2.399 5.359 5.359s-2.4 5.359-5.359 5.359z"/><path d="m322.639 180.197c-13.305 0-24.129-10.824-24.129-24.129 0-2.96 2.399-5.359 5.359-5.359s5.359 2.399 5.359 5.359c0 7.395 6.017 13.411 13.411 13.411 2.959 0 5.359 2.399 5.359 5.359-.001 2.96-2.4 5.359-5.359 5.359z"/><path d="m426.679 183.28c13.305 0 24.129-10.824 24.129-24.129 0-2.96-2.399-5.359-5.359-5.359s-5.359 2.399-5.359 5.359c0 7.395-6.016 13.411-13.411 13.411-2.959 0-5.359 2.399-5.359 5.359s2.4 5.359 5.359 5.359z"/><path d="m407.672 180.197c13.305 0 24.129-10.824 24.129-24.129 0-2.96-2.399-5.359-5.359-5.359s-5.359 2.399-5.359 5.359c0 7.395-6.016 13.411-13.411 13.411-2.959 0-5.359 2.399-5.359 5.359.001 2.96 2.4 5.359 5.359 5.359z"/></g><g><circle cx="321.498" cy="196.267" fill="#fff" r="30.352"/><path d="m329.117 225.652c-2.443.629-4.987.963-7.622.963-16.765 0-30.348-13.582-30.348-30.348s13.583-30.348 30.348-30.348c2.635 0 5.18.335 7.622.963-13.086 3.375-22.746 15.245-22.746 29.385 0 14.141 9.66 26.01 22.746 29.385z" fill="#dddaec"/><circle cx="408.812" cy="196.267" fill="#fff" r="30.352"/><path d="m416.431 225.652c-2.443.629-4.987.963-7.622.963-16.765 0-30.348-13.582-30.348-30.348s13.583-30.348 30.348-30.348c2.635 0 5.18.335 7.622.963-13.086 3.375-22.746 15.245-22.746 29.385 0 14.141 9.66 26.01 22.746 29.385z" fill="#dddaec"/><g fill="#544f57"><circle cx="317.739" cy="196.267" r="12.119"/><circle cx="402.357" cy="196.267" r="12.119"/></g></g></g><g><path d="m215.065 99.357h31.336c8.353 0 15.124 6.772 15.124 15.125 0 5.309-2.741 9.97-6.878 12.669h13.162c8.353 0 15.124 6.772 15.124 15.125s-6.771 15.125-15.124 15.125h-6.71c5.578 2.227 9.524 7.668 9.524 14.041 0 8.353-6.772 15.125-15.125 15.125h-31.336c-8.353 0-15.124-6.771-15.124-15.125 0-6.98 4.735-12.84 11.164-14.583-6.429-1.743-11.164-7.602-11.164-14.583 0-5.309 2.741-9.97 6.878-12.669h-.851c-8.353 0-15.125-6.772-15.125-15.125 0-8.354 6.772-15.125 15.125-15.125z" fill="#faf7f1"/><path d="m269.94 447.59v64.03c-2.4.14-4.82.24-7.24.3-2.23.05-4.46.08-6.7.08-81.9 0-154.83-38.47-201.69-98.32 14.3-44.42 55.97-76.57 105.16-76.57 61.01 0 110.47 49.46 110.47 110.48z" fill="#665e66"/><path d="m188.01 340.84c-47.18 12.58-81.94 55.61-81.94 106.75v15.92c-19.5-14.11-36.94-30.9-51.76-49.83 14.29-44.42 55.96-76.57 105.16-76.57 9.87 0 19.43 1.3 28.54 3.73z" fill="#544f57"/><path d="m195.229 339.151-35.749-35.749-53.391 53.391c-9.872 9.872-9.872 25.877 0 35.749 9.872 9.872 25.877 9.872 35.749 0z" fill="#faf7f1"/><path d="m159.481 303.402-35.749 35.749 53.391 53.391c9.872 9.872 25.877 9.872 35.749 0 9.872-9.872 9.872-25.877 0-35.749z" fill="#faf7f1"/><path d="m195.296 282.308v64.203c0 19.781-16.047 35.828-35.815 35.828-4.86 0-9.49-.964-13.712-2.715-12.979-5.39-22.116-18.179-22.116-33.113v-64.203z" fill="#ffddce"/><path d="m207.987 261.698h-141.746c-29.755 0-53.877-24.121-53.877-53.877 0-18.607 15.084-33.691 33.691-33.691h182.118c18.607 0 33.691 15.084 33.691 33.691h-23.194c0 29.756-.928 53.877-30.683 53.877z" fill="#ffcbbe"/><path d="m66.241 243.535c-19.692 0-35.713-16.021-35.713-35.714 0-8.562 6.966-15.528 15.528-15.528h177.087c8.562 0 15.528 6.966 15.528 15.528 0 19.693 33.733 35.714 14.041 35.714z" fill="#eaac9d"/><path d="m52.614 230.803h13.717v-27.434h-13.717c-7.576 0-13.717 6.141-13.717 13.717.001 7.575 6.142 13.717 13.717 13.717z" fill="#faf7f1"/><path d="m159.476 51.662c-57.69 0-104.457 46.767-104.457 104.457v76.831c0 57.69 46.767 104.457 104.457 104.457 57.69 0 104.457-46.767 104.457-104.457v-76.83c0-57.691-46.767-104.458-104.457-104.458z" fill="#ffddce"/><path d="m186.466 333.884c-8.609 2.298-17.655 3.524-26.991 3.524-57.696 0-104.457-46.761-104.457-104.457v-76.831c0-57.687 46.761-104.457 104.457-104.457 9.336 0 18.381 1.226 26.991 3.524-44.609 11.897-77.476 52.583-77.476 100.934v76.831c.001 48.358 32.867 89.044 77.476 100.932z" fill="#ffcbbe"/><circle cx="114.969" cy="173.218" fill="#fff" r="30.943"/><path d="m122.736 203.175c-2.49.641-5.084.982-7.771.982-17.092 0-30.939-13.847-30.939-30.939s13.847-30.939 30.939-30.939c2.687 0 5.281.341 7.771.982-13.341 3.441-23.189 15.542-23.189 29.957 0 14.416 9.848 26.516 23.189 29.957z" fill="#dddaec"/><circle cx="203.983" cy="173.218" fill="#fff" r="30.943"/><path d="m211.749 203.175c-2.49.641-5.084.982-7.771.982-17.092 0-30.939-13.847-30.939-30.939s13.847-30.939 30.939-30.939c2.687 0 5.281.341 7.771.982-13.341 3.441-23.189 15.542-23.189 29.957.001 14.416 9.849 26.516 23.189 29.957z" fill="#dddaec"/><path d="m159.476 229.616c-5.98 0-10.828-4.848-10.828-10.828v-91.694h21.656v91.694c0 5.98-4.848 10.828-10.828 10.828z" fill="#ffcbbe"/><circle cx="126.557" cy="175.772" fill="#544f57" r="12.355"/><circle cx="212.822" cy="175.772" fill="#544f57" r="12.355"/><path d="m145.767 323.767v55.852c-12.977-5.385-22.11-18.179-22.11-33.102v-39.923z" fill="#ffcbbe"/><g><path d="m181.309 233.862h-21.833-21.833c-26.756 0-48.446 21.69-48.446 48.446h41.871c15.689 0 28.408-12.718 28.408-28.408 0 15.689 12.719 28.408 28.408 28.408h41.871c0-26.756-21.69-48.446-48.446-48.446z" fill="#faf7f1"/><g fill="#dddaec"><path d="m159.477 233.857c-26.712.065-48.329 21.731-48.329 48.451h-21.951c0-26.761 21.69-48.451 48.451-48.451z"/><path d="m209.908 282.308h-22.025c-15.691 0-28.407-12.724-28.407-28.407v-20.044h22.025v20.044c0 15.683 12.716 28.407 28.407 28.407z"/></g></g><path d="m70.686 99.357h-31.336c-8.353 0-15.124 6.772-15.124 15.125 0 5.309 2.741 9.97 6.878 12.669h-13.162c-8.353 0-15.124 6.772-15.124 15.125s6.771 15.124 15.124 15.124h6.71c-5.578 2.227-9.524 7.668-9.524 14.041 0 8.353 6.772 15.125 15.125 15.125h31.336c8.353 0 15.124-6.771 15.124-15.125 0-6.98-4.735-12.84-11.164-14.583 6.429-1.743 11.164-7.602 11.164-14.583 0-5.309-2.741-9.97-6.878-12.669h.851c8.353 0 15.125-6.772 15.125-15.125 0-8.353-6.772-15.124-15.125-15.124z" fill="#faf7f1"/></g></g></svg>