<svg id="Layer_1" height="512" viewBox="0 0 512 512" width="512" xmlns="http://www.w3.org/2000/svg" data-name="Layer 1"><path d="m358.569 122.913a161.157 161.157 0 1 0 7.027 227.9c60.895-64.768 57.743-167.004-7.027-227.9zm-.259 221.053a151.228 151.228 0 1 1 -220.357-207.177c27.669-29.43 67.532-46.36 107.907-47.6 38.621 0 77.593 14.439 105.859 41.014 60.753 57.114 63.709 153.01 6.591 213.763z"/><path d="m182.372 407.381c-4.04-1.986-8.04-4.184-11.89-6.531a5 5 0 1 0 -5.207 8.537c4.107 2.5 8.374 4.849 12.684 6.968a5 5 0 0 0 4.413-8.974z"/><path d="m315.807 407.388a152.6 152.6 0 0 1 -114.341 7.805 5 5 0 0 0 -3.143 9.5 162.687 162.687 0 0 0 121.892-8.324 5 5 0 0 0 -4.408-8.976z"/><path d="m251.546 348.487c-2.142.125 2.125 0 0 0z"/><path d="m346.435 234.746c3.142 54.019-41.156 100.607-95.174 103.75-31.779 0-64.131-15.12-82.544-40.843l33.588 1.223a5 5 0 0 0 .364-9.994l-43.187-1.572a5 5 0 0 0 -5.182 4.955l-.351 42.3a5 5 0 0 0 4.958 5.042h.043a5 5 0 0 0 5-4.958l.219-26.454c20.41 25.478 54.345 40.294 87.378 40.293 59.523-3.462 108.334-54.8 104.872-114.321a5 5 0 0 0 -9.983.58z"/><path d="m242.771 142.478a98.656 98.656 0 0 1 81.59 35.751h-33.736a5 5 0 1 0 0 10h43.669a5 5 0 0 0 5-5.18l-1.516-42.149a5 5 0 1 0 -9.993.36l.96 26.774a108.114 108.114 0 0 0 -188.225 78.689 5 5 0 0 0 4.987 4.71c.1 0 .2 0 .295-.009a5 5 0 0 0 4.7-5.281 98.243 98.243 0 0 1 92.269-103.665z"/><path d="m454.91 94.33c-25.414 0-46.091 26.185-46.091 58.37 0 16.924 5.76 32.983 15.8 44.059 12.3 13.57 18.6 32.251 17.285 51.253l-8.06 116.158v.055a21.1 21.1 0 0 0 20.956 22.334h.107a21.1 21.1 0 0 0 21.063-22.408l-7.532-116.692c-1.221-18.9 4.993-37.5 17.049-51.023 9.86-11.061 15.515-27 15.515-43.736-.002-32.185-20.678-58.37-46.092-58.37zm23.11 95.451c-13.825 15.508-20.956 36.765-19.564 58.323l7.532 116.674a11.1 11.1 0 0 1 -11.079 11.781h-.06a11.1 11.1 0 0 1 -11.028-11.724l8.06-116.131c1.507-21.7-5.729-43.085-19.852-58.662-8.395-9.259-13.21-22.87-13.21-37.342 0-26.672 16.19-48.37 36.091-48.37s36.09 21.698 36.09 48.37c0 14.313-4.731 27.828-12.98 37.081z"/><path d="m67.531 95.785h-.015a5 5 0 0 0 -5 4.986l-.184 61.687-15.66-.047.187-61.686a5 5 0 0 0 -4.984-5.016h-.016a5 5 0 0 0 -5 4.984l-.187 61.688-15.6-.046.184-61.688a5 5 0 0 0 -4.986-5.014h-.015a5 5 0 0 0 -5 4.985l-.255 86.582a30.639 30.639 0 0 0 15.008 26.423l-2.839 149.215a18.629 18.629 0 0 0 18.572 18.984h.059a18.629 18.629 0 0 0 18.627-18.881l-2.014-150.041a30.622 30.622 0 0 0 13.845-25.511l.258-86.585a5 5 0 0 0 -4.985-5.019zm-19.6 273.478a8.566 8.566 0 0 1 -6.134 2.559h-.026a8.629 8.629 0 0 1 -8.6-8.8l1.206-63.351 15.2-.035.851 63.435a8.569 8.569 0 0 1 -2.497 6.192zm-13.368-79.587 1.376-72.292a30.654 30.654 0 0 0 5.6.539h.092a30.54 30.54 0 0 0 6.839-.78l.972 72.5zm27.7-102.321a20.652 20.652 0 0 1 -20.633 20.568h-.063a20.653 20.653 0 0 1 -20.567-20.692l.044-14.9 41.259.123z"/></svg>