<svg id="Capa_1" enable-background="new 0 0 512 512" viewBox="0 0 512 512" xmlns="http://www.w3.org/2000/svg"><g><path d="m82.5 355.187c4.143 0 7.5-3.358 7.5-7.5v-90c0-4.142-3.357-7.5-7.5-7.5h-30c-4.143 0-7.5 3.358-7.5 7.5v90c0 4.142 3.357 7.5 7.5 7.5zm-22.5-90h15v75h-15z"/><path d="m429.5 355.187h30c4.143 0 7.5-3.358 7.5-7.5v-90c0-4.142-3.357-7.5-7.5-7.5h-30c-4.143 0-7.5 3.358-7.5 7.5v90c0 4.142 3.357 7.5 7.5 7.5zm7.5-90h15v75h-15z"/><path d="m279.5 250.187h-47c-4.143 0-7.5 3.358-7.5 7.5v90c0 4.142 3.357 7.5 7.5 7.5h47c4.143 0 7.5-3.358 7.5-7.5v-90c0-4.142-3.357-7.5-7.5-7.5zm-7.5 90h-32v-75h32z"/><path d="m512 182.687c0-9.778-6.272-18.115-15.002-21.211v-53.789c0-4.142-3.357-7.5-7.5-7.5h-154.134l-64.354-57.627c-8.557-7.663-21.464-7.662-30.019 0l-64.355 57.627h-154.136c-4.143 0-7.5 3.358-7.5 7.5v53.79c-8.729 3.096-15 11.432-15 21.21s6.271 18.114 15 21.21v83.79c0 4.142 3.357 7.5 7.5 7.5s7.5-3.358 7.5-7.5v-82.5h75v165h-75v-52.5c0-4.142-3.357-7.5-7.5-7.5s-7.5 3.358-7.5 7.5v90c0 4.142 3.357 7.5 7.5 7.5h161.894l-47.197 47.197c-2.145 2.145-2.786 5.371-1.625 8.173 1.16 2.803 3.896 4.63 6.929 4.63h227c3.033 0 5.769-1.827 6.929-4.63 1.161-2.803.52-6.028-1.625-8.173l-47.197-47.197h161.892c4.143 0 7.5-3.358 7.5-7.5v-203.79c8.729-3.096 15-11.432 15-21.21zm-30.002-67.5v45h-79.631l-50.253-45zm-231-61.453c2.853-2.554 7.153-2.554 10.006 0l130.996 117.305v116.648c0 4.142 3.357 7.5 7.5 7.5s7.5-3.358 7.5-7.5v-82.5h75v165h-75v-52.5c0-4.142-3.357-7.5-7.5-7.5s-7.5 3.358-7.5 7.5v82.5h-45v-172.5c0-50.177-40.822-91-91-91-24.306 0-47.16 9.466-64.347 26.653-17.187 17.188-26.653 40.04-26.653 64.347v172.5h-45v-229.149zm-40.998 346.453v-165h92v165zm99.5-180h-107c-4.143 0-7.5 3.358-7.5 7.5v172.5h-15v-172.5c0-20.3 7.905-39.386 22.26-53.74s33.44-22.259 53.74-22.259c41.906 0 76 34.093 76 76v172.5h-15v-172.5c0-4.143-3.357-7.501-7.5-7.501zm-149.615-105-50.253 45h-79.632v-45zm-137.385 75c-4.136 0-7.5-3.364-7.5-7.5s3.364-7.5 7.5-7.5h82.5v15zm7.5 195h75v15h-75zm321.394 75h-190.788l45-45h100.786zm55.606-60v-15h75v15zm82.5-210h-82.5v-15h82.5c4.136 0 7.5 3.364 7.5 7.5s-3.364 7.5-7.5 7.5z"/></g><g/><g/><g/><g/><g/><g/><g/><g/><g/><g/><g/><g/><g/><g/><g/></svg>