<svg id="Capa_1" enable-background="new 0 0 512 512" viewBox="0 0 512 512" xmlns="http://www.w3.org/2000/svg"><g><circle cx="295.294" cy="349.625" r="7.5"/><circle cx="216.669" cy="349.625" r="7.5"/><path d="m331.981 308c0-20.678-16.822-37.5-37.5-37.5h-23.5c-4.142 0-7.5 3.358-7.5 7.5 0 20.678 16.822 37.5 37.5 37.5h23.5c4.143 0 7.5-3.358 7.5-7.5zm-31-7.5c-9.778 0-18.12-6.27-21.215-15h14.715c9.778 0 18.12 6.27 21.215 15z"/><path d="m248.481 278c0-4.142-3.358-7.5-7.5-7.5h-23.5c-20.678 0-37.5 16.822-37.5 37.5 0 4.142 3.358 7.5 7.5 7.5h23.5c20.678 0 37.5-16.822 37.5-37.5zm-37.5 22.5h-14.715c3.095-8.73 11.437-15 21.215-15h14.715c-3.095 8.73-11.436 15-21.215 15z"/><path d="m361.981 322.754v-14.754c0-58.449-47.552-106-106-106-22.644 0-44.289 7.121-62.598 20.593-3.336 2.455-4.051 7.15-1.596 10.486 2.456 3.336 7.15 4.05 10.486 1.596 15.715-11.563 34.287-17.675 53.708-17.675 50.178 0 91 40.822 91 91v14.754c-17.096 3.484-30 18.636-30 36.746v22.5c0 4.136-3.364 7.5-7.5 7.5-1.854 0-3.634-.682-5.01-1.919l-18.414-16.554c-8.269-7.434-18.949-11.527-30.076-11.527-11.125 0-21.807 4.094-30.077 11.527l-18.413 16.554c-1.376 1.237-3.155 1.919-5.01 1.919-4.136 0-7.5-3.364-7.5-7.5v-22.5c0-18.11-12.904-33.261-30-36.746v-14.754c0-19.421 6.112-37.993 17.676-53.708 2.455-3.336 1.74-8.031-1.596-10.486-3.337-2.455-8.032-1.741-10.486 1.596-13.473 18.309-20.594 39.955-20.594 62.598v14.754c-17.096 3.484-30 18.636-30 36.746s12.904 33.261 30 36.745v9.755c0 58.449 47.552 106 106 106s106-47.551 106-106v-9.755c17.096-3.484 30-18.635 30-36.745s-12.903-33.261-30-36.746zm-226.999 36.746c0-9.777 6.271-18.114 15-21.21v42.42c-8.73-3.096-15-11.433-15-21.21zm120.999 137.5c-50.178 0-91-40.822-91-91v-67.71c8.729 3.096 15 11.433 15 21.21v22.5c0 12.406 10.094 22.5 22.5 22.5 5.564 0 10.905-2.048 15.039-5.765l18.412-16.553c5.512-4.954 12.632-7.683 20.049-7.683 7.418 0 14.538 2.729 20.048 7.682l18.413 16.554c4.134 3.717 9.475 5.765 15.039 5.765 12.406 0 22.5-10.094 22.5-22.5v-22.5c0-9.777 6.271-18.114 15-21.21v67.71c0 50.178-40.822 91-91 91zm106-116.29v-42.42c8.729 3.096 15 11.433 15 21.21.001 9.777-6.27 18.114-15 21.21z"/><path d="m274.74 401.665c-3.582-2.074-8.172-.854-10.249 2.731-1.761 3.039-5.021 4.928-8.51 4.928s-6.749-1.889-8.51-4.928c-2.076-3.585-6.668-4.807-10.249-2.731-3.585 2.076-4.808 6.665-2.731 10.249 4.434 7.655 12.669 12.41 21.49 12.41s17.057-4.755 21.49-12.41c2.077-3.584.854-8.173-2.731-10.249z"/><path d="m511.944 211.812c0-11.243-2.842-22.406-8.219-32.281l-60.246-110.638c-4.19-7.694-3.509-16.945 1.508-23.896h11.476c2.841 0 5.438-1.605 6.708-4.146l14.996-29.997c1.162-2.325 1.038-5.086-.329-7.297-1.366-2.211-3.78-3.557-6.38-3.557h-200.479c-4.142 0-7.5 3.357-7.5 7.5l-.007 89.958c-.002 30.054 11.699 58.308 32.95 79.559l91.028 91.028c5.375 5.559 12.124 9.239 19.502 10.726v90.676c0 18.245 13.237 33.583 30.609 36.846 3.095 17.592 18.441 30.962 36.92 30.962 20.711 0 37.5-16.789 37.5-37.5zm-233.465-196.812h180.845l-7.497 14.997h-173.35zm143.474 354.447v-90.686c5.54-1.129 10.638-3.484 15.001-6.767l.026 118.66c-8.734-3.102-15.027-11.463-15.027-21.207zm52.528 52.809c-12.426 0-22.5-10.074-22.5-22.5l-.031-157.738c0-10.015-3.9-19.432-10.983-26.515l-61.528-61.527c-7.082-7.083-10.982-16.499-10.982-26.514 0-4.142-3.358-7.5-7.5-7.5s-7.5 3.358-7.5 7.5c0 14.022 5.46 27.205 15.375 37.12l61.527 61.527c4.25 4.25 6.59 9.899 6.59 15.908 0 12.405-10.092 22.498-22.498 22.498-6.175 0-11.946-2.461-16.25-6.93-.032-.034-.065-.067-.099-.101l-91.075-91.074c-18.417-18.417-28.559-42.905-28.557-68.952l.004-52.462h149.621c-3.734 9.961-3.125 21.276 2.208 31.07l60.247 110.638c4.182 7.681 6.393 16.362 6.393 25.107l.037 187.944c.001 12.427-10.072 22.501-22.499 22.501z"/><path d="m124.512 268.045 91.028-91.028c21.251-21.25 32.953-49.505 32.951-79.559l-.008-89.958c0-4.142-3.358-7.5-7.5-7.5h-200.479c-2.599 0-5.013 1.346-6.38 3.557-1.366 2.211-1.491 4.972-.329 7.297l14.996 29.997c1.271 2.541 3.868 4.146 6.708 4.146h11.476c5.017 6.951 5.698 16.202 1.508 23.896l-15.592 28.635c-1.981 3.638-.638 8.193 3 10.174 1.14.62 2.368.915 3.58.915 2.658 0 5.233-1.416 6.594-3.915l15.593-28.635c5.333-9.794 5.942-21.109 2.207-31.07h149.621l.004 52.462c.002 26.047-10.14 50.534-28.557 68.952l-91.074 91.074c-.033.033-.066.066-.099.101-4.304 4.469-10.076 6.93-16.25 6.93-12.405 0-22.498-10.092-22.498-22.498 0-6.009 2.34-11.659 6.589-15.908l61.528-61.527c9.915-9.916 15.375-23.098 15.375-37.12 0-4.142-3.358-7.5-7.5-7.5s-7.5 3.358-7.5 7.5c0 10.015-3.9 19.431-10.982 26.514l-61.528 61.527c-7.082 7.083-10.982 16.5-10.982 26.515 0 0 .006 157.738.006 157.738 0 12.426-10.074 22.5-22.5 22.5s-22.5-10.074-22.5-22.5v-187.945c0-8.745 2.21-17.427 6.393-25.106l30.307-55.656c1.981-3.638.638-8.193-3-10.174-3.639-1.981-8.193-.638-10.174 3l-30.307 55.656c-5.376 9.875-8.219 21.037-8.219 32.28v187.944c0 20.711 16.789 37.5 37.5 37.5 18.482 0 33.83-13.374 36.922-30.97 17.353-3.279 30.57-18.608 30.57-36.839v-90.676c7.378-1.486 14.128-5.167 19.502-10.726zm-64.376-238.048-7.497-14.997h180.845l.001 14.997zm14.882 360.645-.005-118.646c4.362 3.282 9.459 5.636 14.997 6.764v90.686c0 9.732-6.277 18.085-14.992 21.196z"/></g><g/><g/><g/><g/><g/><g/><g/><g/><g/><g/><g/><g/><g/><g/><g/></svg>