<svg id="Capa_1" enable-background="new 0 0 512 512" height="512" viewBox="0 0 512 512" width="512" xmlns="http://www.w3.org/2000/svg"><g><path d="m512 256c0 99.283-56.518 185.366-139.135 227.829-35.035 18.008-74.763-17.404-116.865-17.404s-81.83 35.411-116.865 17.404c-82.617-42.464-139.135-128.546-139.135-227.829 0-141.385 114.615-256 256-256s256 114.615 256 256z" fill="#e7a561"/><g><path d="m372.86 483.82c-35.03 18.01-74.76 28.18-116.86 28.18s-81.83-10.17-116.86-28.18c5.23-59.94 55.55-106.96 116.86-106.96s111.63 47.02 116.86 106.96z" fill="#9dc6fb"/><path d="m286.32 380.82c-50.11 13.36-87.02 59.06-87.02 113.36v11.51c-21.17-4.78-41.34-12.2-60.16-21.87 5.23-59.94 55.55-106.96 116.86-106.96 10.49 0 20.65 1.38 30.32 3.96z" fill="#80b4fb"/><path d="m296.158 381.16-40.152-40.152-59.967 59.967c-11.088 11.088-11.088 29.064 0 40.152 11.088 11.088 29.064 11.088 40.152 0z" fill="#cbe2ff"/><path d="m256.006 341.008-40.152 40.152 59.967 59.967c11.088 11.088 29.064 11.088 40.152 0 11.088-11.088 11.088-29.064 0-40.152z" fill="#cbe2ff"/><path d="m296.232 314.972v72.111c0 22.218-18.024 40.242-40.226 40.242-5.459 0-10.659-1.083-15.401-3.05-14.578-6.054-24.84-20.418-24.84-37.192v-72.111z" fill="#c18678"/><path d="m240.603 361.538v62.732c-14.575-6.048-24.833-20.418-24.833-37.179v-44.84z" fill="#b46e59"/><path d="m360.719 291.824h-209.438c-33.42 0-60.513-27.093-60.513-60.513 0-20.899 16.942-37.841 37.841-37.841h254.782c20.899 0 37.841 16.942 37.841 37.841 0 33.42-27.093 60.513-60.513 60.513z" fill="#c18678"/><path d="m151.281 271.423c-22.118 0-40.112-17.994-40.112-40.113 0-9.617 7.824-17.44 17.44-17.44h254.783c9.617 0 17.44 7.824 17.44 17.44 0 22.118-17.994 40.113-40.112 40.113z" fill="#b46e59"/><path d="m256 24.887c-64.796 0-117.324 52.528-117.324 117.324v117.325c0 64.796 52.528 117.324 117.324 117.324 64.796 0 117.324-52.528 117.324-117.324v-117.325c0-64.796-52.528-117.324-117.324-117.324z" fill="#c18678"/><path d="m284.236 373.441c-9.04 2.23-18.5 3.42-28.24 3.42-64.8 0-117.32-52.53-117.32-117.32v-117.33c0-64.8 52.52-117.32 117.32-117.32 9.74 0 19.2 1.19 28.24 3.42-51.16 12.64-89.09 58.83-89.09 113.9v117.33c0 55.06 37.93 101.26 89.09 113.9z" fill="#b46e59"/><g><circle cx="206.011" cy="192.445" fill="#fff" r="34.754"/><path d="m214.734 226.092c-2.797.72-5.71 1.103-8.728 1.103-19.197 0-34.75-15.553-34.75-34.75s15.553-34.75 34.75-34.75c3.018 0 5.931.383 8.728 1.103-14.984 3.865-26.045 17.456-26.045 33.647s11.061 29.782 26.045 33.647z" fill="#dddaec"/><circle cx="305.989" cy="192.445" fill="#fff" r="34.754"/><path d="m314.713 226.092c-2.797.72-5.71 1.103-8.728 1.103-19.197 0-34.75-15.553-34.75-34.75s15.553-34.75 34.75-34.75c3.018 0 5.931.383 8.728 1.103-14.984 3.865-26.045 17.456-26.045 33.647s11.061 29.782 26.045 33.647z" fill="#dddaec"/></g><path d="m256 255.79c-6.717 0-12.162-5.445-12.162-12.162v-171.272h24.324v171.272c0 6.717-5.445 12.162-12.162 12.162z" fill="#b46e59"/><g fill="#544f57"><circle cx="206.011" cy="192.445" r="13.877"/><circle cx="305.989" cy="192.445" r="13.877"/></g><path d="m282.091 260.163h-26.785-26.785c-32.824 0-59.433 26.609-59.433 59.433h51.368c19.247 0 34.851-15.603 34.851-34.851 0 19.248 15.603 34.851 34.851 34.851h51.368c-.002-32.824-26.611-59.433-59.435-59.433z" fill="#fff"/><path d="m255.307 260.157c-32.77.08-59.29 26.66-59.29 59.44h-26.93c0-32.83 26.61-59.44 59.44-59.44z" fill="#dddaec"/><path d="m317.176 319.597h-27.02c-19.25 0-34.85-15.61-34.85-34.85v-24.59h27.02v24.59c0 19.24 15.6 34.85 34.85 34.85z" fill="#dddaec"/><path d="m341.716 34.565h-7.873c-2.394-13.78-14.403-24.26-28.868-24.26-6.96 0-13.35 2.431-18.377 6.484-6.446-10.092-17.736-16.789-30.598-16.789-12.862 0-24.152 6.697-30.597 16.788-5.027-4.053-11.417-6.484-18.378-6.484-14.464 0-26.473 10.481-28.868 24.26h-7.873c-10.498 0-19.008 8.51-19.008 19.008s8.51 19.008 19.008 19.008h7.873c2.394 13.78 14.403 24.26 28.868 24.26 6.96 0 13.35-2.431 18.378-6.484 6.445 10.091 17.736 16.788 30.597 16.788 12.862 0 24.152-6.697 30.597-16.788 5.027 4.053 11.417 6.484 18.377 6.484 14.464 0 26.473-10.481 28.868-24.26h7.873c10.498 0 19.008-8.51 19.008-19.008.001-10.497-8.509-19.007-19.007-19.007z" fill="#fff"/><path d="m241.996 104.342c-6.85-2.87-12.64-7.78-16.59-13.98-2.51 2.02-5.37 3.64-8.47 4.76-3.09 1.11-6.43 1.72-9.91 1.72-14.47 0-26.48-10.48-28.87-24.26h-7.87c-10.5 0-19.01-8.51-19.01-19.01s8.51-19.01 19.01-19.01h7.87c1.2-6.89 4.8-12.96 9.9-17.3 5.12-4.34 11.74-6.96 18.97-6.96 6.96 0 13.35 2.44 18.38 6.49 3.22-5.05 7.65-9.24 12.89-12.18 1.19-.67 2.43-1.27 3.7-1.8-6.52 6.11-11.08 14.27-12.67 23.45-7.55 0-14.37 3.06-19.32 8-4.94 4.94-8 11.77-8 19.31 0 15.09 12.23 27.32 27.32 27.32 1.59 9.18 6.15 17.33 12.67 23.45z" fill="#dddaec"/></g></g></svg>