<svg id="Capa_1" enable-background="new 0 0 512 512" height="512" viewBox="0 0 512 512" width="512" xmlns="http://www.w3.org/2000/svg"><g><path d="m512 256c0 99.372-56.619 185.52-139.358 227.944-34.98 17.936-74.629-13.001-116.642-13.001s-81.662 30.937-116.642 13.001c-82.739-42.424-139.358-128.572-139.358-227.944 0-141.385 114.615-256 256-256s256 114.615 256 256z" fill="#dd636e"/><g><path d="m410.94 155.64v148.457c0 38.47-31.19 69.66-69.66 69.66h-171.39c-38.47 0-69.66-31.19-69.66-69.66v-148.457c0-85.8 69.56-155.35 155.35-155.35 15.75 0 30.96 2.35 45.29 6.71h.01c63.7 19.38 110.06 78.6 110.06 148.64z" fill="#faf7f1"/><path d="m259 373.76h-89.11c-38.47 0-69.66-31.19-69.66-69.66v-148.46c0-85.8 69.56-155.35 155.35-155.35 15.48 0 30.43 2.27 44.54 6.49-64.07 19.15-110.78 78.55-110.78 148.86v148.46c0 38.47 31.19 69.66 69.66 69.66z" fill="#dddaec"/><path d="m372.64 483.94c-34.98 17.94-74.63 28.06-116.64 28.06s-81.66-10.12-116.64-28.06c3.54-33.26 20.98-62.37 46.4-81.4 19.58-14.66 43.89 8.544 70.24 8.544 26.34 0 50.65-23.214 70.23-8.554 25.42 19.03 42.87 48.14 46.41 81.41z" fill="#f5de58"/><path d="m286.32 383.16c-50.11 13.36-87.02 59.06-87.02 113.37v9.17c-21.08-4.77-41.18-12.14-59.94-21.76 3.527-33.12 20.833-62.12 46.078-81.156 19.635-14.806 44.072-8.128 70.562-8.128 10.49 0 20.65-14.076 30.32-11.496z" fill="#eebd56"/><path d="m326.23 402.53v25.91c0 38.73-31.5 70.24-70.22 70.24-9.31 0-18.36-1.79-26.9-5.34-10.94-4.54-20.28-11.59-27.45-20.33-10.09-12.29-15.9-27.91-15.9-44.57v-25.9c19.58-14.66 43.89-23.34 70.24-23.34 10.48 0 20.64 1.37 30.31 3.96h.01c14.63 3.89 28.12 10.55 39.91 19.37z" fill="#c18678"/><path d="m286.31 383.16c-42.67 11.38-75.77 46.22-84.65 89.85-10.09-12.29-15.9-27.91-15.9-44.57v-25.9c19.58-14.66 43.89-23.34 70.24-23.34 10.48 0 20.64 1.37 30.31 3.96z" fill="#b46e59"/><path d="m296.232 314.972v72.111c0 22.218-18.024 40.242-40.226 40.242-5.459 0-10.659-1.083-15.401-3.05-14.578-6.054-24.84-20.418-24.84-37.192v-72.111z" fill="#c18678"/><path d="m360.719 291.824h-209.438c-33.42 0-60.513-27.093-60.513-60.513 0-20.899 16.942-37.841 37.841-37.841h254.782c20.899 0 37.841 16.942 37.841 37.841 0 33.42-27.093 60.513-60.513 60.513z" fill="#c18678"/><path d="m151.281 271.423c-22.118 0-40.112-17.994-40.112-40.113 0-9.617 7.824-17.44 17.44-17.44h254.783c9.617 0 17.44 7.824 17.44 17.44 0 22.118-17.994 40.113-40.112 40.113z" fill="#b46e59"/><path d="m373.32 173.24v86.29c0 32.4-13.13 61.73-34.36 82.97-21.23 21.23-50.56 34.36-82.96 34.36-64.8 0-117.32-52.53-117.32-117.33v-86.29c0-2.76.1-5.5.29-8.22 14.95 8.93 32.41 14.05 51.08 14.05.26 0 .51 0 .77-.01 42.14-.32 78.06-26.74 92.37-63.91 10.55 23.07 33.83 39.1 60.86 39.1 9.49 0 18.53-1.98 26.7-5.55 1.68 7.91 2.57 16.12 2.57 24.54z" fill="#c18678"/><g fill="#b46e59"><path d="m359.57 222.747h-34.259v-16.568h34.259c4.575 0 8.284 3.709 8.284 8.284 0 4.575-3.709 8.284-8.284 8.284z"/><path d="m355.181 246.263h-55.656l21.397-16.568h34.259c4.575 0 8.284 3.709 8.284 8.284 0 4.575-3.709 8.284-8.284 8.284z"/><path d="m286.32 372.9c-9.67 2.58-19.83 3.96-30.32 3.96-64.8 0-117.32-52.52-117.32-117.33v-86.29c0-2.76.1-5.5.29-8.22 14.95 8.93 32.41 14.05 51.08 14.05.26 0 .51 0 .77-.01 2.86-.02 5.68-.16 8.48-.42v80.89c0 54.32 36.91 100.02 87.02 113.37z"/><path d="m268.16 141.37v112.26c0 6.72-5.44 12.16-12.16 12.16s-12.16-5.44-12.16-12.16v-90.29c9.28-5.94 17.5-13.38 24.32-21.97z"/><path d="m240.603 352.892v71.378c-14.575-6.048-24.833-20.418-24.833-37.179v-34.199z"/></g><g><circle cx="398.109" cy="285.55" fill="#cbe2ff" r="18.538"/><path d="m406.648 302.026c-2.548 1.327-5.469 2.071-8.548 2.071-10.229 0-18.53-8.301-18.53-18.547 0-10.229 8.3-18.53 18.53-18.53 3.079 0 6 .743 8.548 2.07-5.964 3.097-10.017 9.309-10.017 16.459 0 7.169 4.053 13.38 10.017 16.477z" fill="#9dc6fb"/><circle cx="113.891" cy="285.55" fill="#cbe2ff" r="18.538"/><path d="m122.43 302.026c-2.548 1.327-5.469 2.071-8.548 2.071-10.229 0-18.53-8.301-18.53-18.547 0-10.229 8.3-18.53 18.53-18.53 3.079 0 6 .743 8.548 2.07-5.964 3.097-10.017 9.309-10.017 16.459 0 7.169 4.053 13.38 10.017 16.477z" fill="#9dc6fb"/></g><g><circle cx="206.011" cy="213.87" fill="#fff" r="34.754"/><path d="m214.734 247.517c-2.797.72-5.71 1.103-8.728 1.103-19.197 0-34.75-15.553-34.75-34.75s15.553-34.75 34.75-34.75c3.018 0 5.931.383 8.728 1.103-14.984 3.865-26.045 17.456-26.045 33.647s11.061 29.782 26.045 33.647z" fill="#dddaec"/><circle cx="305.989" cy="213.87" fill="#fff" r="34.754"/><path d="m314.713 247.517c-2.797.72-5.71 1.103-8.728 1.103-19.197 0-34.75-15.553-34.75-34.75s15.553-34.75 34.75-34.75c3.018 0 5.931.383 8.728 1.103-14.984 3.865-26.045 17.456-26.045 33.647s11.061 29.782 26.045 33.647z" fill="#dddaec"/><g fill="#544f57"><circle cx="207.554" cy="213.87" r="13.877"/><circle cx="304.445" cy="213.87" r="13.877"/></g></g><path d="m285.962 295.95c-16.521 16.521-43.402 16.521-59.923 0-3.675-3.675-3.675-9.633 0-13.308s9.633-3.675 13.308 0c9.183 9.183 24.124 9.182 33.307 0 3.675-3.675 9.633-3.675 13.308 0s3.674 9.633 0 13.308z" fill="#b46e59"/></g></g></svg>