<svg id="Capa_1" enable-background="new 0 0 512 512" viewBox="0 0 512 512" xmlns="http://www.w3.org/2000/svg"><g><path d="m123.409 295.448c3.161-2.676 3.555-7.409.879-10.57-24.685-29.163-38.963-65.796-40.624-103.878h67.336c12.406 0 22.5 10.093 22.5 22.5v45c0 12.407 10.094 22.5 22.5 22.5s22.5-10.093 22.5-22.5v-30c0-4.136 3.364-7.5 7.5-7.5s7.5 3.364 7.5 7.5v75c0 12.407 10.094 22.5 22.5 22.5s22.5-10.093 22.5-22.5v-75c0-4.136 3.364-7.5 7.5-7.5s7.5 3.364 7.5 7.5v30c0 12.407 10.094 22.5 22.5 22.5s22.5-10.093 22.5-22.5v-45c0-12.407 10.094-22.5 22.5-22.5h67.339c-3.942 91.65-79.735 165-172.339 165-40.751 0-80.306-14.485-111.378-40.788-3.163-2.677-7.895-2.283-10.57.879s-2.282 7.894.879 10.57c33.777 28.592 76.774 44.339 121.069 44.339 103.388 0 187.5-84.112 187.5-187.5 0-4.142-3.357-7.5-7.5-7.5h-120.054c40.164-21.488 67.554-63.853 67.554-112.5 0-4.142-3.357-7.5-7.5-7.5-55.183 0-102.289 35.236-120 84.392-17.711-49.156-64.817-84.392-120-84.392-4.143 0-7.5 3.358-7.5 7.5 0 48.647 27.39 91.012 67.554 112.5h-120.054c-4.143 0-7.5 3.358-7.5 7.5 0 44.295 15.746 87.291 44.339 121.069 2.675 3.16 7.407 3.555 10.57.879zm244.826-234.183c-3.825 55.861-48.608 100.645-104.471 104.47 3.826-55.861 48.609-100.645 104.471-104.47zm-224.47 0c55.862 3.825 100.646 48.608 104.471 104.47-55.863-3.825-100.646-48.609-104.471-104.47zm187.255 119.735c-4.719 6.272-7.52 14.064-7.52 22.5v45c0 4.136-3.364 7.5-7.5 7.5s-7.5-3.364-7.5-7.5v-30c0-12.407-10.094-22.5-22.5-22.5s-22.5 10.093-22.5 22.5v75c0 4.136-3.364 7.5-7.5 7.5s-7.5-3.364-7.5-7.5v-75c0-12.407-10.094-22.5-22.5-22.5s-22.5 10.093-22.5 22.5v30c0 4.136-3.364 7.5-7.5 7.5s-7.5-3.364-7.5-7.5v-45c0-8.436-2.801-16.228-7.52-22.5z"/><path d="m489.5 376h-60c-4.143 0-7.5 3.358-7.5 7.5s3.357 7.5 7.5 7.5h60c4.136 0 7.5 3.364 7.5 7.5s-3.364 7.5-7.5 7.5h-467c-4.136 0-7.5-3.364-7.5-7.5s3.364-7.5 7.5-7.5h377c4.143 0 7.5-3.358 7.5-7.5s-3.357-7.5-7.5-7.5h-377c-12.406 0-22.5 10.093-22.5 22.5s10.094 22.5 22.5 22.5h30c14.035 0 27.714 5.754 37.528 15.787l17.547 17.936c7.01 7.167 16.78 11.277 26.807 11.277h243.236c10.026 0 19.797-4.11 26.807-11.277l17.547-17.936c9.814-10.033 23.493-15.787 37.528-15.787h30c12.406 0 22.5-10.093 22.5-22.5s-10.094-22.5-22.5-22.5zm-78.251 50.298-17.547 17.936c-4.206 4.3-10.068 6.766-16.084 6.766h-243.236c-6.016 0-11.878-2.466-16.084-6.766l-17.547-17.936c-1.85-1.891-3.818-3.649-5.868-5.298h322.234c-2.05 1.649-4.018 3.407-5.868 5.298z"/></g><g/><g/><g/><g/><g/><g/><g/><g/><g/><g/><g/><g/><g/><g/><g/></svg>