<?xml version="1.0"?>
<svg xmlns="http://www.w3.org/2000/svg" id="Layer_1" data-name="Layer 1" viewBox="0 0 512 512" width="512" height="512"><title>wheel chair</title><path d="M150.582,438.855A81.275,81.275,0,1,0,69.31,357.582,81.366,81.366,0,0,0,150.582,438.855Zm0-148.549A67.275,67.275,0,1,1,83.31,357.582,67.351,67.351,0,0,1,150.582,290.306Z"/><path d="M150.588,489.169A131.8,131.8,0,0,0,273.71,404.005l90.416-.04-10.007,15.164a36.455,36.455,0,1,0,11.715,7.664l15.3-23.184a7,7,0,0,0,1.1-4.711L368.963,291h11.5L419.67,418.809A17.039,17.039,0,0,0,435.9,430.835a17.031,17.031,0,0,0,5.67-.979l46.755-16.476a7,7,0,0,0-4.654-13.2l-46.754,16.476a3,3,0,0,1-3.865-1.949l-42.1-137.221a6.96,6.96,0,0,0-.531-1.268,38.143,38.143,0,0,0-9.373-20.008c-7.52-8.1-18.5-12.206-32.647-12.206H345V184.3c0-30.407-18.856-49.3-49.209-49.3H163V77.855c0-15.749-2.157-27.762-6.594-36.725-5.717-11.548-15.362-17.839-27.891-18.191-16.476-.466-18.308.545-20.354,2.523A7.113,7.113,0,0,0,106,30.534V233.777A131.809,131.809,0,0,0,19,357.582C19,430.139,78.03,489.169,150.588,489.169Zm212.257-36.35A22.349,22.349,0,1,1,346.154,431.2l-10.887,16.5a7,7,0,1,0,11.684,7.711L357.9,438.819A22.237,22.237,0,0,1,362.845,452.819Zm4.189-62.856-88.9.04a131.516,131.516,0,0,0-14.083-99h90.811Zm3.67-124.324c3.333,3.544,4.906,8.361,5.643,11.361h-121.8a143.86,143.86,0,0,0-18.029-19H348.4C358.434,258,365.937,260.57,370.7,265.639ZM295.791,149C318.167,149,331,161.867,331,184.3V244H216.962c-16.124-9-34.428-15.58-53.962-17.416V149ZM120,36.839c1.916-.023,4.543-.006,8.121.094,5.164.145,20.879.588,20.879,40.922V226.014a131.412,131.412,0,0,0-29,3.577Zm30.588,203.155a116.876,116.876,0,0,1,60.379,16.723,7.038,7.038,0,0,0,.855.517,118.513,118.513,0,0,1,33.081,30.2,7.025,7.025,0,0,0,.946,1.3,117.547,117.547,0,1,1-95.261-48.736Z"/></svg>
